<?xml version="1.0" encoding="UTF-8" standalone="no"?>
<!-- Uploaded to: SVG Repo, www.svgrepo.com, Generator: SVG Repo Mixer Tools -->

<svg
   fill="#000000"
   height="800px"
   width="800px"
   version="1.1"
   id="Capa_1"
   viewBox="0 0 470 470"
   xml:space="preserve"
   sodipodi:docname="wheel_updated.svg"
   inkscape:version="1.4.2 (f4327f4, 2025-05-13)"
   xmlns:inkscape="http://www.inkscape.org/namespaces/inkscape"
   xmlns:sodipodi="http://sodipodi.sourceforge.net/DTD/sodipodi-0.dtd"
   xmlns="http://www.w3.org/2000/svg"
   xmlns:svg="http://www.w3.org/2000/svg"><defs
   id="defs3" /><sodipodi:namedview
   id="namedview3"
   pagecolor="#ffffff"
   bordercolor="#000000"
   borderopacity="0.25"
   inkscape:showpageshadow="2"
   inkscape:pageopacity="0.0"
   inkscape:pagecheckerboard="0"
   inkscape:deskcolor="#d1d1d1"
   inkscape:zoom="1.00875"
   inkscape:cx="400"
   inkscape:cy="400"
   inkscape:window-width="1920"
   inkscape:window-height="1009"
   inkscape:window-x="-8"
   inkscape:window-y="-8"
   inkscape:window-maximized="1"
   inkscape:current-layer="Capa_1" />
<g
   id="g3">
	<path
   d="m 235,212 c -12.683,0 -23,10.318 -23,23 0,12.682 10.317,23 23,23 12.683,0 23,-10.318 23,-23 0,-12.682 -10.317,-23 -23,-23 z"
   id="path1"
   sodipodi:nodetypes="sssss" />
	<path
   d="M 429.376,219.405 C 421.38573,118.95495 336.87192,40 235,40 127.477,40 40,127.477 40,235 c 0,107.523 87.477,195 195,195 49.286,0 96.361,-18.504 132.555,-52.103 35.994,-33.415 57.95,-78.625 61.821,-127.302 -2.8732,-2.89916 3.18007,-11.76536 2.54139,-14.07644 -1.8562,-6.71675 -3.8564,-5.77125 -2.54139,-17.11356 z"
   id="path2"
   sodipodi:nodetypes="csssccsc"
   style="display:inline" />
	<path
   d="M 401.17,68.83 C 356.784,24.444 297.771,0 235,0 172.229,0 113.216,24.444 68.83,68.83 24.444,113.216 0,172.229 0,235 0,297.771 24.444,356.784 68.83,401.17 113.216,445.556 172.229,470 235,470 297.771,470 356.784,445.556 401.17,401.17 445.556,356.784 470,297.771 470,235 470,172.229 445.556,113.216 401.17,68.83 Z"
   id="path3"
   sodipodi:nodetypes="sssssssss"
   style="display:inline" />
</g>
</svg>
